<?xml version="1.0" standalone="no"?>
<!DOCTYPE svg PUBLIC "-//W3C//DTD SVG 20010904//EN"
 "http://www.w3.org/TR/2001/REC-SVG-20010904/DTD/svg10.dtd">
<svg version="1.0" xmlns="http://www.w3.org/2000/svg"
 width="284.000000pt" height="94.000000pt" viewBox="0 0 284.000000 94.000000"
 preserveAspectRatio="xMidYMid meet">

<g transform="translate(0.000000,94.000000) scale(0.100000,-0.100000)"
fill="#000000" stroke="none">
<path d="M0 470 l0 -470 1420 0 1420 0 0 470 0 470 -1420 0 -1420 0 0 -470z
m110 -187 c0 -37 3 -44 12 -35 20 20 65 14 82 -10 23 -32 20 -84 -5 -109 -16
-16 -30 -19 -67 -17 l-47 3 -3 98 c-1 53 -7 97 -12 97 -6 0 -10 5 -10 10 0 6
11 10 25 10 23 0 25 -4 25 -47z m420 -20 c0 -65 0 -66 19 -49 11 10 17 24 14
32 -4 10 4 14 31 14 20 0 36 -2 36 -5 0 -3 -14 -18 -32 -33 l-31 -29 23 -31
c13 -18 30 -32 37 -32 7 0 13 -4 13 -10 0 -24 -45 -7 -76 28 l-33 37 -1 -27
c0 -16 5 -28 10 -28 6 0 10 -4 10 -10 0 -5 -16 -10 -35 -10 -19 0 -35 5 -35
10 0 6 5 10 10 10 6 0 10 37 10 90 0 53 -4 90 -10 90 -5 0 -10 5 -10 10 0 6
11 10 25 10 24 0 25 -2 25 -67z m-137 -5 c9 -7 19 -25 23 -40 l6 -28 -56 0
c-60 0 -72 -13 -40 -44 18 -19 28 -20 54 -6 23 12 40 -7 19 -21 -25 -15 -75
-10 -97 11 -29 27 -30 92 -2 120 23 23 68 26 93 8z m427 -16 c28 -22 30 -84 4
-113 -21 -24 -80 -25 -106 -2 -27 24 -25 97 4 117 30 21 71 20 98 -2z"/>
<path d="M126 227 c-26 -19 -19 -91 10 -95 28 -4 54 23 54 57 0 45 -29 63 -64
38z"/>
<path d="M322 238 c-21 -21 -13 -28 28 -28 22 0 40 4 40 8 0 14 -23 32 -40 32
-9 0 -21 -5 -28 -12z"/>
<path d="M741 226 c-17 -20 -10 -77 12 -90 25 -16 51 4 55 43 4 36 -12 61 -38
61 -10 0 -23 -6 -29 -14z"/>
</g>
</svg>
